<svg width="134" height="129" viewBox="0 0 134 129" fill="none" xmlns="http://www.w3.org/2000/svg">
<g filter="url(#filter0_d_1_293)">
<path fill-rule="evenodd" clip-rule="evenodd" d="M34.6843 19.8139H32.5652C31.3949 19.8139 30.4462 20.7614 30.4462 21.9301V37.2731C30.4462 38.4418 31.3949 39.3894 32.5652 39.3894H57.4642C58.6345 39.3894 59.5833 38.4418 59.5833 37.2731V21.9301C59.5833 20.7614 58.6345 19.8139 57.4642 19.8139H55.3452V15.3168C55.3452 9.61899 50.7201 5 45.0147 5C39.3094 5 34.6843 9.61899 34.6843 15.3168V19.8139ZM36.8034 19.8139H53.2261V15.3168C53.2261 10.7878 49.5497 7.11627 45.0147 7.11627C40.4797 7.11627 36.8034 10.7878 36.8034 15.3168V19.8139ZM46.0304 28.5058C46.5354 28.175 46.8689 27.6045 46.8689 26.9563C46.8689 25.9336 46.0388 25.1045 45.0147 25.1045C43.9907 25.1045 43.1605 25.9336 43.1605 26.9563C43.1605 27.6045 43.494 28.175 43.999 28.5058C43.9705 28.6015 43.9552 28.703 43.9552 28.808V30.9243C43.9552 31.5087 44.4295 31.9824 45.0147 31.9824C45.5999 31.9824 46.0743 31.5087 46.0743 30.9243V28.808C46.0743 28.703 46.0589 28.6015 46.0304 28.5058Z" fill="url(#paint0_linear_1_293)"/>
<path fill-rule="evenodd" clip-rule="evenodd" d="M50.5768 41.5054V60.0228C50.5768 62.9448 52.9486 65.3134 55.8744 65.3134H81.9251L93.9415 73.6775C94.644 74.1664 95.6069 73.6644 95.6069 72.8094V65.3134H98.2557C101.182 65.3134 103.553 62.9448 103.553 60.0228V36.2147C103.553 33.2928 101.182 30.9241 98.2557 30.9241H61.7019V37.2729C61.7019 39.6105 59.8044 41.5054 57.4637 41.5054H50.5768ZM63.2912 40.4473C63.2912 39.8629 63.7655 39.3891 64.3507 39.3891H89.7795C90.3646 39.3891 90.839 39.8629 90.839 40.4473C90.839 41.0317 90.3646 41.5054 89.7795 41.5054H64.3507C63.7655 41.5054 63.2912 41.0317 63.2912 40.4473ZM63.2912 47.8542C63.2912 47.2698 63.7655 46.7961 64.3507 46.7961H89.7795C90.3646 46.7961 90.839 47.2698 90.839 47.8542C90.839 48.4386 90.3646 48.9123 89.7795 48.9123H64.3507C63.7655 48.9123 63.2912 48.4386 63.2912 47.8542ZM64.3507 54.203C63.7655 54.203 63.2912 54.6767 63.2912 55.2612C63.2912 55.8455 63.7655 56.3193 64.3507 56.3193H89.7795C90.3646 56.3193 90.839 55.8455 90.839 55.2612C90.839 54.6767 90.3646 54.203 89.7795 54.203H64.3507Z" fill="url(#paint1_linear_1_293)"/>
</g>
<defs>
<filter id="filter0_d_1_293" x="0.446167" y="0" width="133.107" height="128.869" filterUnits="userSpaceOnUse" color-interpolation-filters="sRGB">
<feFlood flood-opacity="0" result="BackgroundImageFix"/>
<feColorMatrix in="SourceAlpha" type="matrix" values="0 0 0 0 0 0 0 0 0 0 0 0 0 0 0 0 0 0 127 0" result="hardAlpha"/>
<feOffset dy="25"/>
<feGaussianBlur stdDeviation="15"/>
<feColorMatrix type="matrix" values="0 0 0 0 0.972549 0 0 0 0 0.262745 0 0 0 0 0.266667 0 0 0 0.1 0"/>
<feBlend mode="normal" in2="BackgroundImageFix" result="effect1_dropShadow_1_293"/>
<feBlend mode="normal" in="SourceGraphic" in2="effect1_dropShadow_1_293" result="shape"/>
</filter>
<linearGradient id="paint0_linear_1_293" x1="45.0147" y1="5" x2="45.0147" y2="39.3894" gradientUnits="userSpaceOnUse">
<stop stop-color="#FF7374"/>
<stop offset="1" stop-color="#E22123"/>
</linearGradient>
<linearGradient id="paint1_linear_1_293" x1="77.0651" y1="30.9241" x2="77.0651" y2="73.8693" gradientUnits="userSpaceOnUse">
<stop stop-color="#FF7374"/>
<stop offset="1" stop-color="#E22123"/>
</linearGradient>
</defs>
</svg>
